<svg width="20" height="19" viewBox="0 0 20 19" fill="none" xmlns="http://www.w3.org/2000/svg">
<path d="M15.9702 6.5166C14.1982 6.5166 12.751 5.06006 12.751 3.29736C12.751 1.53467 14.1982 0.078125 15.9702 0.078125C17.7236 0.078125 19.1802 1.53467 19.1802 3.29736C19.1802 5.06006 17.7236 6.5166 15.9702 6.5166ZM0.365723 13.9014V6.67432C0.365723 5.11572 0.504883 3.78906 1.45117 2.84277C2.39746 1.89648 3.7334 1.74805 5.29199 1.74805H11.7026C11.5635 2.15625 11.4893 2.60156 11.5078 3.06543C11.4985 3.13037 11.4893 3.17676 11.4893 3.2417H5.08789C4.11377 3.2417 3.10254 3.37158 2.53662 3.92822C1.97998 4.49414 1.85938 5.48682 1.85938 6.47021V14.1611C1.85938 15.1167 1.97998 16.1094 2.53662 16.666C3.10254 17.2319 4.10449 17.3618 5.06006 17.3618H12.7788C13.7344 17.3618 14.7363 17.2319 15.293 16.666C15.8589 16.1094 15.9795 15.1167 15.9795 14.1611V7.74121C16.0444 7.73193 16.0908 7.73193 16.1558 7.71338C16.6196 7.73193 17.0649 7.65771 17.4731 7.51855V13.9014C17.4731 15.4878 17.334 16.8145 16.3877 17.7607C15.4414 18.707 14.1055 18.8555 12.519 18.8555H5.31055C3.7334 18.8555 2.39746 18.707 1.45117 17.7607C0.504883 16.8145 0.365723 15.4878 0.365723 13.9014Z" fill="black"/>
</svg>
